<?xml version="1.0" encoding="UTF-8" standalone="no"?>
<!DOCTYPE svg PUBLIC "-//W3C//DTD SVG 1.1//EN"
 "http://www.w3.org/Graphics/SVG/1.1/DTD/svg11.dtd">
<!-- Generated by graphviz version 2.42.4 (0)
 -->
<!-- Title: nvfp4_coldstart Pages: 1 -->
<svg width="1050pt" height="1340pt"
 viewBox="0.00 0.00 1050.00 1340.00" xmlns="http://www.w3.org/2000/svg" xmlns:xlink="http://www.w3.org/1999/xlink">
<g id="graph0" class="graph" transform="scale(1 1) rotate(0) translate(4 1336)">
<title>nvfp4_coldstart</title>
<polygon fill="white" stroke="transparent" points="-4,4 -4,-1336 1046,-1336 1046,4 -4,4"/>
<text text-anchor="start" x="358.5" y="-1314.6" font-family="Helvetica,sans-Serif" font-weight="bold" font-size="18.00">NVFP4 cold&#45;start phase timeline</text>
<text text-anchor="start" x="250.5" y="-1300.6" font-family="Helvetica,sans-Serif" font-size="13.00">nvidia/Qwen3&#45;8B&#45;NVFP4 . RTX PRO 4000 Blackwell (24 GB GDDR7) . vLLM v0.22.1</text>
<text text-anchor="start" x="273.5" y="-1289.2" font-family="Helvetica,sans-Serif" font-size="11.00">phase order from vLLM&#39;s log; measured times for groups of phases (3 launches, 2026&#45;07)</text>
<g id="clust1" class="cluster">
<title>cluster_legend</title>
<polygon fill="none" stroke="#999999" stroke-dasharray="5,2" points="8,-891 8,-1274 244,-1274 244,-891 8,-891"/>
<text text-anchor="middle" x="126" y="-1259.6" font-family="Helvetica,sans-Serif" font-size="13.00">Resource legend</text>
</g>
<!-- L1 -->
<g id="node1" class="node">
<title>L1</title>
<path fill="#e8f1ff" stroke="#4a78c2" stroke-width="1.5" d="M193.5,-1244C193.5,-1244 58.5,-1244 58.5,-1244 52.5,-1244 46.5,-1238 46.5,-1232 46.5,-1232 46.5,-1215 46.5,-1215 46.5,-1209 52.5,-1203 58.5,-1203 58.5,-1203 193.5,-1203 193.5,-1203 199.5,-1203 205.5,-1209 205.5,-1215 205.5,-1215 205.5,-1232 205.5,-1232 205.5,-1238 199.5,-1244 193.5,-1244"/>
<text text-anchor="middle" x="126" y="-1219.8" font-family="Helvetica,sans-Serif" font-size="14.00">CPU / disk / RAM</text>
</g>
<!-- L2 -->
<g id="node2" class="node">
<title>L2</title>
<path fill="#fff1d6" stroke="#c28a2a" stroke-width="1.5" d="M223.5,-1138.5C223.5,-1138.5 28.5,-1138.5 28.5,-1138.5 22.5,-1138.5 16.5,-1132.5 16.5,-1126.5 16.5,-1126.5 16.5,-1109.5 16.5,-1109.5 16.5,-1103.5 22.5,-1097.5 28.5,-1097.5 28.5,-1097.5 223.5,-1097.5 223.5,-1097.5 229.5,-1097.5 235.5,-1103.5 235.5,-1109.5 235.5,-1109.5 235.5,-1126.5 235.5,-1126.5 235.5,-1132.5 229.5,-1138.5 223.5,-1138.5"/>
<text text-anchor="middle" x="126" y="-1114.3" font-family="Helvetica,sans-Serif" font-size="14.00">host &#45;&gt; GPU weight copy</text>
</g>
<!-- L1&#45;&gt;L2 -->
<!-- L3 -->
<g id="node3" class="node">
<title>L3</title>
<path fill="#ffe0e0" stroke="#c24a4a" stroke-width="1.5" d="M192,-1043C192,-1043 60,-1043 60,-1043 54,-1043 48,-1037 48,-1031 48,-1031 48,-1014 48,-1014 48,-1008 54,-1002 60,-1002 60,-1002 192,-1002 192,-1002 198,-1002 204,-1008 204,-1014 204,-1014 204,-1031 204,-1031 204,-1037 198,-1043 192,-1043"/>
<text text-anchor="middle" x="126" y="-1018.8" font-family="Helvetica,sans-Serif" font-size="14.00">VRAM allocation</text>
</g>
<!-- L2&#45;&gt;L3 -->
<!-- L4 -->
<g id="node4" class="node">
<title>L4</title>
<path fill="#e1f5e1" stroke="#3d8a3d" stroke-width="1.5" d="M223,-940C223,-940 29,-940 29,-940 23,-940 17,-934 17,-928 17,-928 17,-911 17,-911 17,-905 23,-899 29,-899 29,-899 223,-899 223,-899 229,-899 235,-905 235,-911 235,-911 235,-928 235,-928 235,-934 229,-940 223,-940"/>
<text text-anchor="middle" x="126" y="-915.8" font-family="Helvetica,sans-Serif" font-size="14.00">GPU compute (kernel/JIT)</text>
</g>
<!-- L3&#45;&gt;L4 -->
<!-- P0 -->
<g id="node5" class="node">
<title>P0</title>
<path fill="#e8f1ff" stroke="#4a78c2" stroke-width="1.5" d="M613.5,-1251.5C613.5,-1251.5 312.5,-1251.5 312.5,-1251.5 306.5,-1251.5 300.5,-1245.5 300.5,-1239.5 300.5,-1239.5 300.5,-1207.5 300.5,-1207.5 300.5,-1201.5 306.5,-1195.5 312.5,-1195.5 312.5,-1195.5 613.5,-1195.5 613.5,-1195.5 619.5,-1195.5 625.5,-1201.5 625.5,-1207.5 625.5,-1207.5 625.5,-1239.5 625.5,-1239.5 625.5,-1245.5 619.5,-1251.5 613.5,-1251.5"/>
<text text-anchor="middle" x="463" y="-1227.3" font-family="Helvetica,sans-Serif" font-size="14.00">0. Router decision</text>
<text text-anchor="middle" x="463" y="-1212.3" font-family="Helvetica,sans-Serif" font-size="14.00">stop other backend, remove placeholder</text>
</g>
<!-- P1 -->
<g id="node6" class="node">
<title>P1</title>
<path fill="#e8f1ff" stroke="#4a78c2" stroke-width="1.5" d="M621.5,-1146C621.5,-1146 304.5,-1146 304.5,-1146 298.5,-1146 292.5,-1140 292.5,-1134 292.5,-1134 292.5,-1102 292.5,-1102 292.5,-1096 298.5,-1090 304.5,-1090 304.5,-1090 621.5,-1090 621.5,-1090 627.5,-1090 633.5,-1096 633.5,-1102 633.5,-1102 633.5,-1134 633.5,-1134 633.5,-1140 627.5,-1146 621.5,-1146"/>
<text text-anchor="middle" x="463" y="-1121.8" font-family="Helvetica,sans-Serif" font-size="14.00">1. Container start</text>
<text text-anchor="middle" x="463" y="-1106.8" font-family="Helvetica,sans-Serif" font-size="14.00">image layers, cgroups, devices, entrypoint</text>
</g>
<!-- P0&#45;&gt;P1 -->
<g id="edge4" class="edge">
<title>P0&#45;&gt;P1</title>
<path fill="none" stroke="#555555" stroke-width="1.4" d="M463,-1195.31C463,-1183.3 463,-1169 463,-1156.05"/>
<polygon fill="#555555" stroke="#555555" stroke-width="1.4" points="466.5,-1156.01 463,-1146.01 459.5,-1156.01 466.5,-1156.01"/>
</g>
<!-- N_recreate -->
<g id="node17" class="node">
<title>N_recreate</title>
<polygon fill="#fffbea" stroke="#b89b3a" stroke-width="1.5" points="948,-1269 654,-1269 654,-1178 954,-1178 954,-1263 948,-1269"/>
<polyline fill="none" stroke="#b89b3a" stroke-width="1.5" points="948,-1269 948,-1263 "/>
<polyline fill="none" stroke="#b89b3a" stroke-width="1.5" points="954,-1263 948,-1263 "/>
<text text-anchor="middle" x="804" y="-1246.4" font-family="Helvetica,sans-Serif" font-size="12.00">Triggers a full recreate (phases 1&#45;11):</text>
<text text-anchor="middle" x="804" y="-1233.4" font-family="Helvetica,sans-Serif" font-size="12.00">* model change</text>
<text text-anchor="middle" x="804" y="-1220.4" font-family="Helvetica,sans-Serif" font-size="12.00">* @ctx change &#45;&gt; &#45;&#45;max&#45;model&#45;len</text>
<text text-anchor="middle" x="804" y="-1207.4" font-family="Helvetica,sans-Serif" font-size="12.00">* MTP on/off change (::mtp / ::nomtp)</text>
<text text-anchor="middle" x="804" y="-1194.4" font-family="Helvetica,sans-Serif" font-size="12.00">(a ::reasoning override does NOT recreate)</text>
</g>
<!-- P0&#45;&gt;N_recreate -->
<g id="edge15" class="edge">
<title>P0&#45;&gt;N_recreate</title>
<path fill="none" stroke="#555555" stroke-width="1.4" stroke-dasharray="5,2" d="M625.51,-1223.5C634.92,-1223.5 644.33,-1223.5 653.75,-1223.5"/>
</g>
<!-- P2 -->
<g id="node7" class="node">
<title>P2</title>
<path fill="#e8f1ff" stroke="#4a78c2" stroke-width="1.5" d="M606.5,-1058C606.5,-1058 319.5,-1058 319.5,-1058 313.5,-1058 307.5,-1052 307.5,-1046 307.5,-1046 307.5,-999 307.5,-999 307.5,-993 313.5,-987 319.5,-987 319.5,-987 606.5,-987 606.5,-987 612.5,-987 618.5,-993 618.5,-999 618.5,-999 618.5,-1046 618.5,-1046 618.5,-1052 612.5,-1058 606.5,-1058"/>
<text text-anchor="middle" x="463" y="-1033.8" font-family="Helvetica,sans-Serif" font-size="14.00">2. Python + library import</text>
<text text-anchor="middle" x="463" y="-1018.8" font-family="Helvetica,sans-Serif" font-size="14.00">vllm / sglang, torch, flashinfer, cutlass</text>
<text text-anchor="middle" x="463" y="-1003.8" font-family="Helvetica,sans-Serif" font-size="14.00">(phases 0&#45;2: 7&#45;18 s)</text>
</g>
<!-- P1&#45;&gt;P2 -->
<g id="edge5" class="edge">
<title>P1&#45;&gt;P2</title>
<path fill="none" stroke="#555555" stroke-width="1.4" d="M463,-1089.96C463,-1083.13 463,-1075.63 463,-1068.19"/>
<polygon fill="#555555" stroke="#555555" stroke-width="1.4" points="466.5,-1068.16 463,-1058.16 459.5,-1068.16 466.5,-1068.16"/>
</g>
<!-- P3 -->
<g id="node8" class="node">
<title>P3</title>
<path fill="#e8f1ff" stroke="#4a78c2" stroke-width="1.5" d="M650,-955C650,-955 276,-955 276,-955 270,-955 264,-949 264,-943 264,-943 264,-896 264,-896 264,-890 270,-884 276,-884 276,-884 650,-884 650,-884 656,-884 662,-890 662,-896 662,-896 662,-943 662,-943 662,-949 656,-955 650,-955"/>
<text text-anchor="middle" x="463" y="-930.8" font-family="Helvetica,sans-Serif" font-size="14.00">3. API server + engine&#45;core start</text>
<text text-anchor="middle" x="463" y="-915.8" font-family="Helvetica,sans-Serif" font-size="14.00">parse config.json + quantization_config, tokenizer,</text>
<text text-anchor="middle" x="463" y="-900.8" font-family="Helvetica,sans-Serif" font-size="14.00">spawn engine process (14 s)</text>
</g>
<!-- P2&#45;&gt;P3 -->
<g id="edge6" class="edge">
<title>P2&#45;&gt;P3</title>
<path fill="none" stroke="#555555" stroke-width="1.4" d="M463,-986.74C463,-979.92 463,-972.67 463,-965.56"/>
<polygon fill="#555555" stroke="#555555" stroke-width="1.4" points="466.5,-965.32 463,-955.32 459.5,-965.32 466.5,-965.32"/>
</g>
<!-- P4 -->
<g id="node9" class="node">
<title>P4</title>
<path fill="#ffe0e0" stroke="#c24a4a" stroke-width="1.5" d="M639.5,-852C639.5,-852 286.5,-852 286.5,-852 280.5,-852 274.5,-846 274.5,-840 274.5,-840 274.5,-808 274.5,-808 274.5,-802 280.5,-796 286.5,-796 286.5,-796 639.5,-796 639.5,-796 645.5,-796 651.5,-802 651.5,-808 651.5,-808 651.5,-840 651.5,-840 651.5,-846 645.5,-852 639.5,-852"/>
<text text-anchor="middle" x="463" y="-827.8" font-family="Helvetica,sans-Serif" font-size="14.00">4. CUDA context init</text>
<text text-anchor="middle" x="463" y="-812.8" font-family="Helvetica,sans-Serif" font-size="14.00">driver handshake, primary ctx, cuBLAS handles</text>
</g>
<!-- P3&#45;&gt;P4 -->
<g id="edge7" class="edge">
<title>P3&#45;&gt;P4</title>
<path fill="none" stroke="#555555" stroke-width="1.4" d="M463,-883.95C463,-876.89 463,-869.43 463,-862.28"/>
<polygon fill="#555555" stroke="#555555" stroke-width="1.4" points="466.5,-862.11 463,-852.11 459.5,-862.11 466.5,-862.11"/>
</g>
<!-- P5 -->
<g id="node10" class="node">
<title>P5</title>
<path fill="#e8f1ff" stroke="#4a78c2" stroke-width="1.5" d="M582.5,-764C582.5,-764 343.5,-764 343.5,-764 337.5,-764 331.5,-758 331.5,-752 331.5,-752 331.5,-720 331.5,-720 331.5,-714 337.5,-708 343.5,-708 343.5,-708 582.5,-708 582.5,-708 588.5,-708 594.5,-714 594.5,-720 594.5,-720 594.5,-752 594.5,-752 594.5,-758 588.5,-764 582.5,-764"/>
<text text-anchor="middle" x="463" y="-739.8" font-family="Helvetica,sans-Serif" font-size="14.00">5. Weight mmap + shard views</text>
<text text-anchor="middle" x="463" y="-724.8" font-family="Helvetica,sans-Serif" font-size="14.00">(5.96 GiB checkpoint)</text>
</g>
<!-- P4&#45;&gt;P5 -->
<g id="edge8" class="edge">
<title>P4&#45;&gt;P5</title>
<path fill="none" stroke="#555555" stroke-width="1.4" d="M463,-795.79C463,-788.9 463,-781.38 463,-774.09"/>
<polygon fill="#555555" stroke="#555555" stroke-width="1.4" points="466.5,-774.03 463,-764.03 459.5,-774.03 466.5,-774.03"/>
</g>
<!-- P6 -->
<g id="node11" class="node">
<title>P6</title>
<path fill="#fff1d6" stroke="#c28a2a" stroke-width="1.5" d="M687,-676C687,-676 239,-676 239,-676 233,-676 227,-670 227,-664 227,-664 227,-617 227,-617 227,-611 233,-605 239,-605 239,-605 687,-605 687,-605 693,-605 699,-611 699,-617 699,-617 699,-664 699,-664 699,-670 693,-676 687,-676"/>
<text text-anchor="middle" x="463" y="-651.8" font-family="Helvetica,sans-Serif" font-size="14.00">6. Weight copy to GPU</text>
<text text-anchor="middle" x="463" y="-636.8" font-family="Helvetica,sans-Serif" font-size="14.00">NVFP4 tensors + FP8 scales + two BF16 vocabulary matrices</text>
<text text-anchor="middle" x="463" y="-621.8" font-family="Helvetica,sans-Serif" font-size="14.00">weights 1.5&#45;1.6 s for 5.98 GiB: not PCIe&#45;bound</text>
</g>
<!-- P5&#45;&gt;P6 -->
<g id="edge9" class="edge">
<title>P5&#45;&gt;P6</title>
<path fill="none" stroke="#555555" stroke-width="1.4" d="M463,-707.96C463,-701.13 463,-693.63 463,-686.19"/>
<polygon fill="#555555" stroke="#555555" stroke-width="1.4" points="466.5,-686.16 463,-676.16 459.5,-686.16 466.5,-686.16"/>
</g>
<!-- P7 -->
<g id="node12" class="node">
<title>P7</title>
<path fill="#ffe0e0" stroke="#c24a4a" stroke-width="1.5" d="M709,-573C709,-573 217,-573 217,-573 211,-573 205,-567 205,-561 205,-561 205,-514 205,-514 205,-508 211,-502 217,-502 217,-502 709,-502 709,-502 715,-502 721,-508 721,-514 721,-514 721,-561 721,-561 721,-567 715,-573 709,-573"/>
<text text-anchor="middle" x="463" y="-548.8" font-family="Helvetica,sans-Serif" font-size="14.00">7. Weight registration</text>
<text text-anchor="middle" x="463" y="-533.8" font-family="Helvetica,sans-Serif" font-size="14.00">cutlass NVFP4 GEMM operands, per&#45;block scales (+ MTP head if on)</text>
<text text-anchor="middle" x="463" y="-518.8" font-family="Helvetica,sans-Serif" font-size="14.00">(phases 4&#45;7: 2&#45;3 s)</text>
</g>
<!-- P6&#45;&gt;P7 -->
<g id="edge10" class="edge">
<title>P6&#45;&gt;P7</title>
<path fill="none" stroke="#555555" stroke-width="1.4" d="M463,-604.74C463,-597.92 463,-590.67 463,-583.56"/>
<polygon fill="#555555" stroke="#555555" stroke-width="1.4" points="466.5,-583.32 463,-573.32 459.5,-583.32 466.5,-583.32"/>
</g>
<!-- P8 -->
<g id="node13" class="node">
<title>P8</title>
<path fill="#e1f5e1" stroke="#3d8a3d" stroke-width="1.5" d="M717,-470C717,-470 209,-470 209,-470 203,-470 197,-464 197,-458 197,-458 197,-411 197,-411 197,-405 203,-399 209,-399 209,-399 717,-399 717,-399 723,-399 729,-405 729,-411 729,-411 729,-458 729,-458 729,-464 723,-470 717,-470"/>
<text text-anchor="middle" x="463" y="-445.8" font-family="Helvetica,sans-Serif" font-size="14.00">8. Profiling run (first forward pass)</text>
<text text-anchor="middle" x="463" y="-430.8" font-family="Helvetica,sans-Serif" font-size="14.00">torch.compile of the model graph (15 s), FlashInfer / NVFP4 kernel JIT,</text>
<text text-anchor="middle" x="463" y="-415.8" font-family="Helvetica,sans-Serif" font-size="14.00">peak activation measured</text>
</g>
<!-- P7&#45;&gt;P8 -->
<g id="edge11" class="edge">
<title>P7&#45;&gt;P8</title>
<path fill="none" stroke="#555555" stroke-width="1.4" d="M463,-501.74C463,-494.92 463,-487.67 463,-480.56"/>
<polygon fill="#555555" stroke="#555555" stroke-width="1.4" points="466.5,-480.32 463,-470.32 459.5,-480.32 466.5,-480.32"/>
</g>
<!-- P9 -->
<g id="node14" class="node">
<title>P9</title>
<path fill="#ffe0e0" stroke="#c24a4a" stroke-width="1.5" d="M689,-339.5C689,-339.5 237,-339.5 237,-339.5 231,-339.5 225,-333.5 225,-327.5 225,-327.5 225,-280.5 225,-280.5 225,-274.5 231,-268.5 237,-268.5 237,-268.5 689,-268.5 689,-268.5 695,-268.5 701,-274.5 701,-280.5 701,-280.5 701,-327.5 701,-327.5 701,-333.5 695,-339.5 689,-339.5"/>
<text text-anchor="middle" x="463" y="-315.3" font-family="Helvetica,sans-Serif" font-size="14.00">9. KV cache pool sizing + allocation</text>
<text text-anchor="middle" x="463" y="-300.3" font-family="Helvetica,sans-Serif" font-size="14.00">&#45;&#45;gpu&#45;memory&#45;utilization x device memory minus profiled use</text>
<text text-anchor="middle" x="463" y="-285.3" font-family="Helvetica,sans-Serif" font-size="14.00">(13.73 GiB = 199 984 tokens)</text>
</g>
<!-- P8&#45;&gt;P9 -->
<g id="edge12" class="edge">
<title>P8&#45;&gt;P9</title>
<path fill="none" stroke="#555555" stroke-width="1.4" d="M463,-398.73C463,-383.73 463,-365.99 463,-350.01"/>
<polygon fill="#555555" stroke="#555555" stroke-width="1.4" points="466.5,-349.8 463,-339.8 459.5,-349.8 466.5,-349.8"/>
</g>
<!-- P10 -->
<g id="node15" class="node">
<title>P10</title>
<path fill="#e1f5e1" stroke="#3d8a3d" stroke-width="1.5" d="M743.5,-209C743.5,-209 182.5,-209 182.5,-209 176.5,-209 170.5,-203 170.5,-197 170.5,-197 170.5,-135 170.5,-135 170.5,-129 176.5,-123 182.5,-123 182.5,-123 743.5,-123 743.5,-123 749.5,-123 755.5,-129 755.5,-135 755.5,-135 755.5,-197 755.5,-197 755.5,-203 749.5,-209 743.5,-209"/>
<text text-anchor="middle" x="463" y="-184.8" font-family="Helvetica,sans-Serif" font-size="14.00">10. NVFP4 GEMM autotune + CUDA graph capture</text>
<text text-anchor="middle" x="463" y="-169.8" font-family="Helvetica,sans-Serif" font-size="14.00">batch sizes up to &#45;&#45;max&#45;num&#45;seqs (32): 11 piecewise up to 64, 7 full up to 32</text>
<text text-anchor="middle" x="463" y="-154.8" font-family="Helvetica,sans-Serif" font-size="14.00">(capture 1 s, 0.16 GiB; with MTP, K+1 tokens per sequence per step)</text>
<text text-anchor="middle" x="463" y="-139.8" font-family="Helvetica,sans-Serif" font-size="14.00">(phases 8&#45;10 = vLLM init engine: 30 s)</text>
</g>
<!-- P9&#45;&gt;P10 -->
<g id="edge13" class="edge">
<title>P9&#45;&gt;P10</title>
<path fill="none" stroke="#555555" stroke-width="1.4" d="M463,-268.33C463,-253.47 463,-235.79 463,-219.39"/>
<polygon fill="#555555" stroke="#555555" stroke-width="1.4" points="466.5,-219.38 463,-209.38 459.5,-219.38 466.5,-219.38"/>
</g>
<!-- N_measured -->
<g id="node18" class="node">
<title>N_measured</title>
<polygon fill="#e8f5e8" stroke="#3d8a3d" stroke-width="1.5" points="1036,-367 730,-367 730,-241 1042,-241 1042,-361 1036,-367"/>
<polyline fill="none" stroke="#3d8a3d" stroke-width="1.5" points="1036,-367 1036,-361 "/>
<polyline fill="none" stroke="#3d8a3d" stroke-width="1.5" points="1042,-361 1036,-361 "/>
<text text-anchor="start" x="752" y="-344.6" font-family="Helvetica,sans-Serif" font-weight="bold" font-size="13.00">Measured, Qwen3&#45;8B&#45;NVFP4</text>
<text text-anchor="start" x="752" y="-331.6" font-family="Helvetica,sans-Serif" font-size="13.00">router launch &#45;&gt; ready: 55&#45;67 s</text>
<text text-anchor="start" x="752" y="-318.6" font-family="Helvetica,sans-Serif" font-size="13.00">(3 launches, 2026&#45;07, ctx 32768)</text>
<text text-anchor="start" x="752" y="-305.6" font-family="Helvetica,sans-Serif" font-size="13.00">median 44.5 s on the 2026&#45;04/05 image</text>
<text text-anchor="start" x="752" y="-292.6" font-family="Helvetica,sans-Serif" font-size="13.00">(16 launches)</text>
<text text-anchor="start" x="752" y="-268.2" font-family="Helvetica,sans-Serif" font-size="11.00">Sources: router + vLLM logs,</text>
<text text-anchor="start" x="752" y="-257.2" font-family="Helvetica,sans-Serif" font-size="11.00">scripts/stats/perf_phases.py, perf_coldstart.py</text>
</g>
<!-- P9&#45;&gt;N_measured -->
<g id="edge16" class="edge">
<title>P9&#45;&gt;N_measured</title>
<path fill="none" stroke="#555555" stroke-width="1.4" stroke-dasharray="5,2" d="M701.35,-304C710.85,-304 720.34,-304 729.84,-304"/>
</g>
<!-- P11 -->
<g id="node16" class="node">
<title>P11</title>
<path fill="#d6f5d6" stroke="#2f6f2f" stroke-width="2" d="M683.5,-73.5C683.5,-73.5 242.5,-73.5 242.5,-73.5 236.5,-73.5 230.5,-67.5 230.5,-61.5 230.5,-61.5 230.5,-29.5 230.5,-29.5 230.5,-23.5 236.5,-17.5 242.5,-17.5 242.5,-17.5 683.5,-17.5 683.5,-17.5 689.5,-17.5 695.5,-23.5 695.5,-29.5 695.5,-29.5 695.5,-61.5 695.5,-61.5 695.5,-67.5 689.5,-73.5 683.5,-73.5"/>
<text text-anchor="middle" x="463" y="-49.3" font-family="Helvetica,sans-Serif" font-size="14.00">11. /health &#45;&gt; 200</text>
<text text-anchor="middle" x="463" y="-34.3" font-family="Helvetica,sans-Serif" font-size="14.00">router polls every 2 s, then proxies the queued request (2 s)</text>
</g>
<!-- P10&#45;&gt;P11 -->
<g id="edge14" class="edge">
<title>P10&#45;&gt;P11</title>
<path fill="none" stroke="#555555" stroke-width="1.4" d="M463,-122.89C463,-110.1 463,-96.15 463,-83.71"/>
<polygon fill="#555555" stroke="#555555" stroke-width="1.4" points="466.5,-83.68 463,-73.68 459.5,-83.68 466.5,-83.68"/>
</g>
<!-- N_router -->
<g id="node19" class="node">
<title>N_router</title>
<polygon fill="#fffbea" stroke="#b89b3a" stroke-width="1.5" points="995.5,-91 724.5,-91 724.5,0 1001.5,0 1001.5,-85 995.5,-91"/>
<polyline fill="none" stroke="#b89b3a" stroke-width="1.5" points="995.5,-91 995.5,-85 "/>
<polyline fill="none" stroke="#b89b3a" stroke-width="1.5" points="1001.5,-85 995.5,-85 "/>
<text text-anchor="middle" x="863" y="-68.4" font-family="Helvetica,sans-Serif" font-size="12.00">Router timeout:</text>
<text text-anchor="middle" x="863" y="-55.4" font-family="Helvetica,sans-Serif" font-size="12.00">HEALTH_TIMEOUT_SECONDS=600</text>
<text text-anchor="middle" x="863" y="-42.4" font-family="Helvetica,sans-Serif" font-size="12.00">(engineering margin; slowest observed</text>
<text text-anchor="middle" x="863" y="-29.4" font-family="Helvetica,sans-Serif" font-size="12.00">successful launch 278 s, slower ones</text>
<text text-anchor="middle" x="863" y="-16.4" font-family="Helvetica,sans-Serif" font-size="12.00">timed out or were abandoned)</text>
</g>
<!-- P11&#45;&gt;N_router -->
<g id="edge17" class="edge">
<title>P11&#45;&gt;N_router</title>
<path fill="none" stroke="#555555" stroke-width="1.4" stroke-dasharray="5,2" d="M695.81,-45.5C705.28,-45.5 714.75,-45.5 724.22,-45.5"/>
</g>
</g>
</svg>
